<svg xmlns="http://www.w3.org/2000/svg" xmlns:xlink="http://www.w3.org/1999/xlink" width="353" zoomAndPan="magnify" viewBox="0 0 264.75 440.25" height="587" preserveAspectRatio="xMidYMid meet" version="1.0"><defs><clipPath id="f3c1bd50f3"><path d="M 170 0.0078125 L 203 0.0078125 L 203 29 L 170 29 Z M 170 0.0078125 " clip-rule="nonzero"/></clipPath><clipPath id="1a6843f86a"><path d="M 183 0.0078125 L 211 0.0078125 L 211 34 L 183 34 Z M 183 0.0078125 " clip-rule="nonzero"/></clipPath><clipPath id="ff17f4247d"><path d="M 32.257812 25 L 259 25 L 259 323.457031 L 32.257812 323.457031 Z M 32.257812 25 " clip-rule="nonzero"/></clipPath><clipPath id="0e19004b0d"><path d="M 32.257812 23 L 260 23 L 260 323.457031 L 32.257812 323.457031 Z M 32.257812 23 " clip-rule="nonzero"/></clipPath><clipPath id="433f9cd8da"><path d="M 242 67 L 264.363281 67 L 264.363281 74 L 242 74 Z M 242 67 " clip-rule="nonzero"/></clipPath><clipPath id="1b23585d14"><path d="M 27 186 L 213 186 L 213 414 L 27 414 Z M 27 186 " clip-rule="nonzero"/></clipPath><clipPath id="7cabc4c2eb"><path d="M 0.777344 212.359375 L 43.476562 178.242188 L 224.820312 405.195312 L 182.121094 439.3125 Z M 0.777344 212.359375 " clip-rule="nonzero"/></clipPath><clipPath id="7219e667db"><path d="M 0.777344 212.359375 L 43.476562 178.242188 L 224.820312 405.195312 L 182.121094 439.3125 Z M 0.777344 212.359375 " clip-rule="nonzero"/></clipPath><clipPath id="dcefa111fb"><path d="M 90 40 L 144 40 L 144 98 L 90 98 Z M 90 40 " clip-rule="nonzero"/></clipPath><clipPath id="c36d068848"><path d="M 90.984375 97.035156 L 92.4375 38.652344 L 144.082031 39.9375 L 142.628906 98.320312 Z M 90.984375 97.035156 " clip-rule="nonzero"/></clipPath><clipPath id="239f435d47"><path d="M 90.984375 97.035156 L 92.4375 38.652344 L 144.082031 39.9375 L 142.628906 98.320312 Z M 90.984375 97.035156 " clip-rule="nonzero"/></clipPath></defs><path fill="#faf0e8" d="M 202.234375 247.261719 C 202.253906 247.070312 202.5 246.898438 202.964844 246.796875 C 203.433594 246.695312 204.125 246.664062 204.980469 246.8125 C 205.839844 246.960938 206.863281 247.285156 207.925781 247.890625 C 208.992188 248.496094 210.09375 249.382812 211.027344 250.601562 C 211.671875 251.453125 212.21875 252.441406 212.609375 253.539062 C 213.003906 254.632812 213.238281 255.832031 213.265625 257.070312 C 213.296875 258.253906 213.136719 259.414062 212.820312 260.496094 C 212.449219 261.738281 211.882812 262.84375 211.207031 263.78125 C 210.53125 264.71875 209.75 265.480469 208.953125 266.074219 C 208.121094 266.6875 207.285156 267.109375 206.519531 267.386719 C 205.753906 267.660156 205.0625 267.792969 204.492188 267.832031 C 203.921875 267.871094 203.472656 267.824219 203.167969 267.734375 C 202.859375 267.644531 202.695312 267.511719 202.671875 267.355469 C 202.652344 267.203125 202.773438 267.035156 203.003906 266.847656 C 203.234375 266.65625 203.570312 266.445312 203.980469 266.183594 C 204.390625 265.921875 204.875 265.605469 205.386719 265.214844 C 205.894531 264.824219 206.4375 264.355469 206.945312 263.789062 C 207.433594 263.25 207.902344 262.617188 208.296875 261.898438 C 208.695312 261.175781 209.023438 260.371094 209.230469 259.515625 C 209.40625 258.777344 209.492188 257.984375 209.46875 257.167969 C 209.445312 256.316406 209.308594 255.480469 209.082031 254.703125 C 208.855469 253.929688 208.539062 253.210938 208.160156 252.578125 C 207.621094 251.664062 206.941406 250.894531 206.253906 250.273438 C 205.570312 249.648438 204.875 249.167969 204.269531 248.792969 C 203.667969 248.414062 203.148438 248.136719 202.785156 247.898438 C 202.421875 247.660156 202.214844 247.457031 202.234375 247.261719 Z M 202.234375 247.261719 " fill-opacity="1" fill-rule="evenodd"/><path fill="#faf0e8" d="M 171.984375 183.433594 C 171.554688 187.191406 171.09375 193.640625 170.800781 197.347656 C 170.511719 201.054688 170.386719 205.46875 170.671875 210.347656 C 170.960938 215.226562 171.511719 219.855469 172.980469 226.035156 C 174.449219 232.214844 176.417969 238.945312 179.257812 245.003906 C 182.097656 251.066406 186.828125 257.542969 190.671875 262.746094 C 184.628906 259.515625 180.769531 257.722656 174.722656 249.613281 C 168.675781 241.5 166.484375 233.660156 165.25 228.367188 C 164.011719 223.070312 164.074219 216.175781 164.265625 211.671875 C 164.457031 207.167969 165.222656 202.273438 166.082031 198.53125 C 166.941406 194.785156 167.765625 190.546875 171.984375 183.433594 Z M 171.984375 183.433594 " fill-opacity="1" fill-rule="evenodd"/><g clip-path="url(#f3c1bd50f3)"><path fill="#faf0e8" d="M 202.167969 0.445312 C 199.03125 1.648438 196.046875 2.796875 193.070312 4.355469 C 190.09375 5.914062 185.617188 8.972656 183.136719 11.222656 C 180.652344 13.472656 177.691406 16.859375 176.21875 18.960938 C 174.746094 21.0625 172.214844 25.492188 170.636719 28.382812 C 170.78125 25.210938 170.910156 22.453125 171.882812 19.546875 C 172.859375 16.644531 175.085938 11.457031 179.671875 7.425781 C 184.257812 3.398438 187.675781 2.148438 191.503906 1.101562 C 195.328125 0.0546875 199.179688 0.183594 202.171875 0.445312 Z M 202.167969 0.445312 " fill-opacity="1" fill-rule="evenodd"/></g><path fill="#faf0e8" d="M 212.050781 3.121094 C 210.777344 4.722656 210.492188 5.6875 209.59375 7.453125 C 208.691406 9.21875 207.917969 12.113281 207.988281 14.40625 C 208.054688 16.699219 208.332031 19.28125 209.710938 21.429688 C 211.09375 23.578125 213.847656 25.75 215.730469 26.523438 C 213 26.714844 208.949219 24.699219 207.566406 22.992188 C 206.183594 21.285156 203.722656 18.722656 203.757812 14.574219 C 203.792969 10.421875 205.148438 8.433594 206.703125 6.683594 C 208.261719 4.933594 210.269531 3.445312 212.046875 3.121094 Z M 212.050781 3.121094 " fill-opacity="1" fill-rule="evenodd"/><g clip-path="url(#1a6843f86a)"><path fill="#faf0e8" d="M 210.371094 0.871094 C 207.488281 2.605469 204.753906 4.257812 202.09375 6.3125 C 199.4375 8.367188 195.566406 12.164062 193.519531 14.8125 C 191.46875 17.460938 189.144531 21.316406 188.0625 23.644531 C 186.980469 25.96875 185.269531 30.777344 184.21875 33.898438 C 183.808594 30.75 183.449219 28.011719 183.898438 24.984375 C 184.351562 21.953125 185.632812 16.453125 189.441406 11.683594 C 193.253906 6.914062 196.398438 5.082031 199.980469 3.382812 C 203.566406 1.683594 207.378906 1.136719 210.371094 0.871094 Z M 210.371094 0.871094 " fill-opacity="1" fill-rule="evenodd"/></g><g clip-path="url(#ff17f4247d)"><path fill="#faf0e8" d="M 223.199219 281.023438 C 211.761719 275.183594 198.882812 272.628906 186.066406 271.796875 C 173.25 270.960938 160.390625 271.785156 147.558594 272.351562 C 134.730469 272.917969 121.808594 273.226562 109.097656 271.375 C 96.390625 269.523438 83.804688 265.40625 73.433594 257.824219 C 64.441406 251.246094 57.351562 242.195312 52.675781 232.082031 C 48 221.96875 45.707031 210.816406 45.527344 199.679688 C 45.257812 183.253906 49.609375 166.757812 58.058594 152.671875 C 66.507812 138.582031 79.050781 126.960938 93.796875 119.722656 C 103.363281 115.023438 113.726562 112.179688 123.539062 108.015625 C 133.351562 103.855469 142.933594 98.066406 148.765625 89.144531 C 154.753906 79.988281 156.105469 68.6875 158.742188 58.070312 C 161.601562 46.566406 166.136719 35.480469 172.160156 25.273438 C 164.15625 31.273438 157.90625 39.589844 154.375 48.953125 C 152.382812 54.230469 151.246094 59.785156 149.867188 65.257812 C 148.492188 70.730469 146.832031 76.207031 143.914062 81.035156 C 140.929688 85.976562 136.695312 90.09375 131.945312 93.378906 C 127.199219 96.660156 121.933594 99.136719 116.539062 101.199219 C 105.753906 105.324219 94.363281 107.851562 83.890625 112.710938 C 67.445312 120.34375 53.839844 133.652344 45.097656 149.539062 C 36.359375 165.421875 32.40625 183.777344 32.96875 201.902344 C 33.382812 215.1875 36.207031 228.46875 41.945312 240.460938 C 47.683594 252.449219 56.398438 263.109375 67.453125 270.492188 C 84.738281 282.039062 106.359375 284.921875 127.144531 285.269531 C 147.929688 285.621094 168.890625 283.769531 189.402344 287.144531 C 215.398438 291.421875 239.910156 304.289062 258.191406 323.257812 C 252.90625 305.222656 239.941406 289.574219 223.199219 281.027344 " fill-opacity="1" fill-rule="nonzero"/></g><g clip-path="url(#0e19004b0d)"><path stroke-linecap="butt" transform="matrix(0.379819, 0, 0, 0.379819, 5.396853, -36.062867)" fill="none" stroke-linejoin="miter" d="M 573.437037 834.834966 C 543.324021 819.459638 509.416025 812.733575 475.67258 810.542977 C 441.929136 808.342094 408.072562 810.512123 374.287979 812.003376 C 340.513682 813.494628 306.492556 814.307104 273.026793 809.432251 C 239.571314 804.557398 206.434655 793.717535 179.129308 773.755321 C 155.454389 756.436223 136.788022 732.607036 124.477475 705.980466 C 112.166929 679.353895 106.129927 649.991648 105.65684 620.670538 C 104.94721 577.424216 116.404143 533.992773 138.649516 496.906866 C 160.89489 459.810674 193.918419 429.214287 232.742406 410.157109 C 257.929147 397.784855 285.213925 390.297739 311.048589 379.334462 C 336.883253 368.38147 362.111131 353.139841 377.46589 329.650043 C 393.232028 305.543175 396.790465 275.790116 403.732503 247.836846 C 411.260757 217.548993 423.201061 188.361582 439.05976 161.488184 C 417.98682 177.285176 401.53162 199.180876 392.234432 223.832823 C 386.989337 237.727182 383.996547 252.351741 380.366119 266.760325 C 376.745975 281.16891 372.375062 295.587779 364.692541 308.299421 C 356.835183 321.309313 345.686785 332.149176 333.180833 340.798441 C 320.685166 349.437421 306.82166 355.957794 292.618765 361.38801 C 264.223261 372.248442 234.233659 378.902513 206.660914 391.696431 C 163.36317 411.792344 127.542256 446.831635 104.525545 488.658697 C 81.519119 530.475474 71.111205 578.802339 72.592173 626.522419 C 73.68233 661.500003 81.118023 696.467303 96.225954 728.040718 C 111.333884 759.603849 134.278604 787.670249 163.383739 807.107954 C 208.892651 837.508936 265.817358 845.098897 320.541183 846.014217 C 375.265007 846.939822 430.451634 842.064969 484.455543 850.950777 C 552.89889 862.212305 617.434128 896.089448 665.565588 946.03098 C 651.650659 898.547443 617.516404 857.347736 573.437037 834.84525 " stroke="#000000" stroke-width="0.729" stroke-opacity="1" stroke-miterlimit="4"/></g><path fill="#faf0e8" d="M 140.597656 223.484375 C 140.597656 220.941406 127.140625 210.148438 119.679688 206.703125 C 110.554688 202.488281 97.03125 200.921875 88.601562 203.105469 C 80.996094 205.078125 83.484375 202.046875 92.238281 198.679688 C 102.371094 194.785156 116.363281 194.574219 123.605469 198.214844 C 128.804688 200.824219 133.683594 205.257812 137.019531 210.402344 C 139.851562 214.769531 143.144531 224.566406 141.78125 224.566406 C 141.128906 224.566406 140.597656 224.078125 140.597656 223.484375 Z M 140.597656 223.484375 " fill-opacity="1" fill-rule="nonzero"/><path fill="#faf0e8" d="M 214.132812 120.84375 C 220.539062 123.902344 225.324219 132.90625 225.796875 139.71875 C 226.273438 146.527344 224.59375 155.417969 221.851562 160.328125 C 219.113281 165.238281 211.136719 176.832031 205.246094 189.84375 C 201.417969 198.296875 198.472656 207.351562 198.410156 215.558594 C 198.488281 222.625 198.34375 226.128906 199.886719 234.433594 C 201.429688 242.738281 202.527344 243.355469 203.257812 247.484375 C 199.261719 243.28125 196.3125 234.929688 194.40625 226.5 C 192.242188 216.953125 190.949219 213.679688 191.902344 203.460938 C 192.851562 193.242188 196.480469 187.683594 200.574219 179.972656 C 205.460938 170.769531 210.957031 162.738281 213.109375 159.480469 C 215.265625 156.222656 220.628906 147.855469 221.105469 140.046875 C 221.582031 132.242188 217.722656 126.183594 214.132812 120.84375 Z M 214.132812 120.84375 " fill-opacity="1" fill-rule="evenodd"/><path fill="#faf0e8" d="M 227.121094 51.324219 C 227.03125 51.277344 226.980469 51.152344 226.953125 50.972656 C 226.925781 50.789062 226.917969 50.546875 226.890625 50.257812 C 226.867188 49.96875 226.824219 49.628906 226.734375 49.265625 C 226.640625 48.902344 226.492188 48.511719 226.261719 48.152344 C 226.054688 47.820312 225.761719 47.5 225.402344 47.234375 C 225.046875 46.96875 224.617188 46.753906 224.171875 46.667969 C 223.804688 46.585938 223.394531 46.585938 222.992188 46.664062 C 222.585938 46.738281 222.1875 46.898438 221.859375 47.132812 C 221.523438 47.367188 221.222656 47.703125 221.003906 48.097656 C 220.828125 48.417969 220.707031 48.761719 220.667969 49.097656 C 220.554688 49.761719 220.75 50.515625 221.042969 51.203125 C 221.382812 51.992188 221.945312 52.699219 222.507812 53.347656 C 223.496094 54.472656 224.46875 55.300781 225.15625 55.910156 C 225.5 56.214844 225.769531 56.46875 225.945312 56.675781 C 226.117188 56.882812 226.191406 57.046875 226.144531 57.164062 C 226.09375 57.285156 225.921875 57.347656 225.640625 57.351562 C 225.359375 57.355469 224.964844 57.296875 224.484375 57.160156 C 223.519531 56.878906 222.183594 56.269531 220.800781 55.160156 C 220.003906 54.53125 219.164062 53.695312 218.488281 52.539062 C 217.886719 51.511719 217.503906 50.207031 217.625 48.761719 C 217.703125 48.007812 217.933594 47.269531 218.304688 46.597656 C 218.757812 45.777344 219.40625 45.089844 220.175781 44.589844 C 220.941406 44.105469 221.777344 43.828125 222.601562 43.742188 C 223.425781 43.65625 224.234375 43.753906 224.972656 44.007812 C 225.855469 44.320312 226.578125 44.828125 227.121094 45.417969 C 227.667969 46.003906 228.03125 46.667969 228.238281 47.3125 C 228.457031 48.011719 228.488281 48.660156 228.425781 49.207031 C 228.363281 49.753906 228.210938 50.199219 228.039062 50.53125 C 227.863281 50.863281 227.675781 51.085938 227.511719 51.214844 C 227.347656 51.339844 227.214844 51.371094 227.121094 51.324219 Z M 227.121094 51.324219 " fill-opacity="1" fill-rule="evenodd"/><path stroke-linecap="round" transform="matrix(0.164357, 0, 0, 0.20336, 304.28366, 5.914273)" fill-opacity="1" fill="#faf0e8" fill-rule="nonzero" stroke-linejoin="miter" d="M -473.259727 218.995708 C -473.259727 232.095943 -477.894258 242.737483 -483.622064 242.737483 C -489.326102 242.737483 -493.960633 232.095943 -493.960633 218.995708 C -493.960633 205.876265 -489.326102 195.253933 -483.622064 195.253933 C -477.941792 195.253933 -473.331027 205.684179 -473.259727 218.649954 L -483.622064 218.995708 Z M -473.259727 218.995708 " stroke="#000000" stroke-width="0.8" stroke-opacity="1" stroke-miterlimit="4"/><path fill="#faf0e8" d="M 184.597656 268.011719 C 177.441406 262.617188 163.90625 262.445312 139.964844 261.21875 C 108.648438 259.617188 95.015625 255.433594 87.996094 252.90625 C 79.800781 249.953125 79.796875 251.976562 87.988281 257.042969 C 96.578125 262.359375 108.457031 266.582031 142.667969 266.707031 C 165.132812 266.789062 174.917969 265.070312 181.640625 267.949219 C 186.378906 269.980469 187.234375 270 184.601562 268.011719 Z M 184.597656 268.011719 " fill-opacity="1" fill-rule="nonzero"/><path fill="#faf0e8" d="M 215.421875 26.160156 C 219.09375 26.460938 225.195312 28.890625 227.535156 30.941406 C 232.136719 35.621094 234.042969 39.734375 235.757812 45.28125 C 236.625 48.054688 237.421875 50.824219 238.511719 53.296875 C 240.640625 57.84375 243.441406 62.246094 244.003906 66.882812 C 243.589844 74.792969 241.007812 79.972656 234.460938 83.738281 C 230.164062 86.175781 225.25 87.074219 221.242188 89.355469 C 216.105469 92.546875 212.6875 97.648438 211.828125 103.410156 C 211.460938 106.460938 211.445312 109.453125 212.007812 112.632812 C 212.574219 115.816406 213.082031 117.757812 214.542969 120.214844 C 211.707031 118.566406 209.777344 115.414062 208.664062 112.769531 C 207.402344 109.640625 206.90625 106.25 207.152344 103.167969 C 208.042969 96.28125 211.746094 90.351562 217.335938 86.902344 C 221.601562 84.351562 226.492188 83.382812 230.488281 81.09375 C 235.359375 78.113281 238.90625 72.851562 238.527344 67.183594 C 237.910156 62.417969 235.164062 58.421875 233.46875 54.398438 C 232.328125 51.589844 232.203125 48.886719 231.457031 46.152344 C 230.183594 41.113281 229.484375 37.710938 226.566406 34.292969 C 224.660156 31.46875 218.699219 27.738281 215.421875 26.160156 Z M 215.421875 26.160156 " fill-opacity="1" fill-rule="evenodd"/><g clip-path="url(#433f9cd8da)"><path fill="#faf0e8" d="M 242.175781 68.917969 L 243.691406 71.148438 C 247.183594 69.203125 251.863281 68.488281 256.1875 69.398438 C 259.238281 70.039062 262.121094 71.460938 264.320312 73.480469 C 262.449219 71.242188 259.738281 69.433594 256.582031 68.390625 C 252.089844 66.910156 246.75 67.046875 242.175781 68.917969 Z M 242.175781 68.917969 " fill-opacity="1" fill-rule="evenodd"/></g><path fill="#faf0e8" d="M 240.886719 71.078125 L 241.164062 73.632812 C 243.992188 73.253906 246.914062 73.222656 249.808594 73.542969 C 254.621094 74.078125 259.355469 75.617188 263.441406 78.039062 C 259.757812 75.203125 255.179688 73.082031 250.1875 71.972656 C 247.1875 71.304688 244.046875 70.996094 240.886719 71.078125 Z M 240.886719 71.078125 " fill-opacity="1" fill-rule="evenodd"/><path fill="#faf0e8" d="M 241.550781 73.570312 L 240.648438 76.023438 C 244.71875 76.839844 248.675781 78.210938 252.304688 80.085938 C 255.910156 81.953125 259.195312 84.316406 261.976562 87.082031 C 259.605469 84.0625 256.632812 81.332031 253.191406 79.042969 C 249.726562 76.734375 245.785156 74.875 241.550781 73.570312 Z M 241.550781 73.570312 " fill-opacity="1" fill-rule="evenodd"/><path fill="#faf0e8" d="M 233.460938 71.707031 L 235.191406 69.585938 C 230.191406 66.902344 224.726562 64.863281 219.039062 63.546875 C 209.453125 61.316406 199.027344 61.234375 189.832031 64.164062 C 186.050781 65.371094 182.511719 67.070312 179.390625 69.179688 C 182.640625 67.210938 186.253906 65.683594 190.042969 64.660156 C 199.25 62.171875 209.332031 62.75 218.40625 65.277344 C 223.796875 66.78125 228.890625 68.960938 233.460938 71.707031 Z M 233.460938 71.707031 " fill-opacity="1" fill-rule="evenodd"/><path fill="#faf0e8" d="M 232.035156 73.210938 L 232.222656 70.648438 C 221.617188 70.320312 210.996094 71.222656 200.753906 73.308594 C 191.5 75.1875 182.492188 78.066406 174.496094 82.304688 C 173.242188 82.972656 172.015625 83.671875 170.816406 84.398438 C 172.054688 83.71875 173.320312 83.070312 174.609375 82.457031 C 182.808594 78.554688 191.871094 76.082031 201.089844 74.589844 C 211.296875 72.9375 221.746094 72.480469 232.035156 73.210938 Z M 232.035156 73.210938 " fill-opacity="1" fill-rule="evenodd"/><path fill="#faf0e8" d="M 234.101562 74.304688 L 233.667969 71.761719 C 223.996094 73.085938 214.621094 75.714844 206.003906 79.496094 C 197.386719 83.265625 189.40625 88.3125 183.753906 94.882812 C 180.914062 98.183594 178.695312 101.835938 177.1875 105.671875 C 178.890625 101.894531 181.28125 98.347656 184.246094 95.191406 C 190.148438 88.90625 198.21875 84.277344 206.828125 80.875 C 215.449219 77.472656 224.703125 75.25 234.101562 74.304688 Z M 234.101562 74.304688 " fill-opacity="1" fill-rule="evenodd"/><g clip-path="url(#1b23585d14)"><g clip-path="url(#7cabc4c2eb)"><g clip-path="url(#7219e667db)"><path fill="#faf0e8" d="M 197.019531 378.175781 C 197.082031 378.269531 197.144531 378.363281 197.203125 378.457031 C 197.144531 378.363281 197.082031 378.269531 197.019531 378.175781 M 34.71875 186.566406 C 30.605469 197.609375 27.890625 209.292969 27.914062 221.125 C 27.921875 226.140625 28.4375 231.171875 29.523438 236.070312 C 30.539062 240.675781 32.097656 245.1875 34.019531 249.488281 C 37.777344 257.894531 43.238281 265.488281 49.542969 272.167969 C 52.851562 275.664062 56.417969 278.910156 60.113281 281.988281 C 63.878906 285.132812 67.820312 288.066406 71.847656 290.859375 C 80.335938 296.75 89.265625 301.984375 98.285156 307.015625 C 107.667969 312.257812 117.183594 317.269531 126.613281 322.425781 C 135.378906 327.21875 144.078125 332.144531 152.511719 337.5 C 160.554688 342.605469 168.347656 348.125 175.585938 354.324219 C 179.679688 357.875 183.578125 361.644531 187.199219 365.675781 C 190.835938 369.71875 194.199219 374.019531 197.25 378.519531 C 202.042969 385.714844 205.949219 393.460938 208.730469 401.652344 C 208.707031 401.589844 208.6875 401.523438 208.664062 401.457031 C 209.234375 403.152344 209.757812 404.855469 210.300781 406.554688 C 211.039062 408.867188 211.757812 411.1875 212.335938 413.550781 L 212.34375 413.550781 C 212.125 411.484375 211.792969 409.441406 211.421875 407.398438 C 211.085938 405.519531 210.738281 403.640625 210.359375 401.765625 C 209.84375 399.210938 209.1875 396.675781 208.421875 394.183594 C 206.929688 389.3125 204.96875 384.601562 202.585938 380.101562 C 200.214844 375.628906 197.398438 371.378906 194.277344 367.402344 C 191.1875 363.460938 187.738281 359.792969 184.132812 356.320312 C 176.636719 349.089844 168.308594 342.761719 159.65625 336.984375 C 150.753906 331.039062 141.464844 325.6875 132.09375 320.519531 C 122.660156 315.320312 113.121094 310.320312 103.679688 305.136719 C 94.566406 300.132812 85.542969 294.949219 76.882812 289.191406 C 71.246094 285.449219 65.785156 281.433594 60.636719 277.035156 C 54.160156 271.425781 48.230469 265.164062 43.414062 258.058594 C 39.992188 252.902344 37.203125 247.359375 35.195312 241.503906 C 33.082031 235.105469 31.863281 228.425781 31.375 221.710938 C 30.757812 212.007812 31.65625 202.289062 33.4375 192.746094 C 33.832031 190.679688 34.265625 188.621094 34.726562 186.570312 L 34.722656 186.566406 L 34.71875 186.566406 " fill-opacity="1" fill-rule="nonzero"/></g></g></g><g clip-path="url(#dcefa111fb)"><g clip-path="url(#c36d068848)"><g clip-path="url(#239f435d47)"><path fill="#ffffff" d="M 122.492188 85.566406 C 122.515625 85.546875 122.539062 85.53125 122.558594 85.511719 C 122.539062 85.53125 122.515625 85.546875 122.492188 85.566406 M 111.167969 92.171875 C 111.183594 92.164062 111.207031 92.15625 111.226562 92.148438 C 111.207031 92.15625 111.1875 92.164062 111.167969 92.171875 M 90.996094 97.035156 C 95.082031 97.078125 99.171875 96.703125 103.167969 95.855469 C 106.921875 95.0625 110.558594 93.78125 114.03125 92.167969 C 117.339844 90.632812 120.472656 88.730469 123.371094 86.515625 C 124.8125 85.414062 126.199219 84.242188 127.511719 82.992188 C 128.804688 81.761719 130.023438 80.457031 131.179688 79.097656 C 133.527344 76.332031 135.566406 73.320312 137.289062 70.128906 C 139.058594 66.847656 140.476562 63.378906 141.5625 59.8125 C 142.015625 58.320312 142.410156 56.808594 142.71875 55.277344 C 143.042969 53.652344 143.261719 52.003906 143.410156 50.351562 C 143.710938 46.984375 143.613281 43.597656 143.285156 40.234375 L 143.28125 40.234375 C 143.195312 41.488281 143.074219 42.742188 142.929688 43.992188 C 142.515625 47.53125 141.902344 51.046875 141.121094 54.523438 C 140.746094 56.195312 140.339844 57.859375 139.863281 59.503906 C 139.394531 61.105469 138.855469 62.6875 138.25 64.242188 C 137.398438 66.394531 136.417969 68.496094 135.300781 70.523438 C 134.203125 72.5 132.976562 74.40625 131.632812 76.226562 C 129.035156 79.699219 125.980469 82.824219 122.570312 85.503906 C 119.0625 88.226562 115.191406 90.472656 111.097656 92.199219 C 108.550781 93.261719 105.921875 94.121094 103.257812 94.84375 C 100.414062 95.613281 97.527344 96.195312 94.609375 96.609375 L 94.65625 96.601562 C 93.4375 96.773438 92.21875 96.914062 90.996094 97.03125 L 90.992188 97.035156 L 90.996094 97.035156 " fill-opacity="1" fill-rule="nonzero"/></g></g></g></svg>