<svg xmlns="http://www.w3.org/2000/svg" xmlns:xlink="http://www.w3.org/1999/xlink" width="390" zoomAndPan="magnify" viewBox="0 0 292.5 60" height="80" preserveAspectRatio="xMidYMid meet" version="1.0"><defs><g/></defs><g fill="#ffbd59" fill-opacity="1"><g transform="translate(97.603104, 36.331493)"><g><path d="M 3.300781 -15.96875 L 3.214844 -15.96875 C 3.171875 -15.96875 3.171875 -15.96875 3.195312 -15.96875 L 3.214844 -15.96875 C 3.214844 -15.96875 3.195312 -15.945312 3.128906 -15.945312 C 3.019531 -15.921875 2.957031 -15.902344 2.914062 -15.902344 C 2.828125 -15.859375 2.761719 -15.816406 2.675781 -15.773438 C 2.589844 -15.707031 2.523438 -15.644531 2.480469 -15.601562 C 2.394531 -15.515625 2.351562 -15.449219 2.332031 -15.363281 C 2.289062 -15.277344 2.242188 -15.191406 2.222656 -15.105469 C 2.199219 -8.910156 2.199219 -4.273438 2.199219 -1.164062 C 2.199219 -0.949219 2.265625 -0.753906 2.4375 -0.582031 C 2.589844 -0.410156 2.785156 -0.300781 3.042969 -0.238281 C 3.367188 -0.152344 3.667969 -0.171875 3.925781 -0.34375 C 4.1875 -0.519531 4.335938 -0.820312 4.402344 -1.25 L 4.402344 -7.8125 C 4.402344 -8.089844 4.53125 -8.308594 4.789062 -8.480469 C 5.050781 -8.628906 5.242188 -8.480469 5.371094 -8.046875 C 6.300781 -4.855469 7.011719 -2.460938 7.488281 -0.863281 L 7.53125 -0.734375 C 7.53125 -0.691406 7.550781 -0.648438 7.59375 -0.605469 L 7.769531 -0.386719 L 7.984375 -0.214844 C 8.046875 -0.171875 8.132812 -0.128906 8.242188 -0.128906 C 8.328125 -0.0859375 8.414062 -0.0664062 8.5 -0.0664062 L 10.121094 -0.0664062 C 10.164062 -0.0664062 10.226562 -0.0664062 10.269531 -0.0859375 C 10.3125 -0.0859375 10.355469 -0.0859375 10.398438 -0.109375 C 10.488281 -0.128906 10.574219 -0.171875 10.660156 -0.214844 C 10.746094 -0.257812 10.808594 -0.300781 10.875 -0.367188 C 10.941406 -0.410156 11.003906 -0.496094 11.046875 -0.582031 C 11.089844 -0.648438 11.132812 -0.734375 11.175781 -0.820312 C 12.082031 -3.925781 12.75 -6.257812 13.226562 -7.832031 C 13.3125 -8.089844 13.484375 -8.242188 13.765625 -8.308594 C 14.023438 -8.351562 14.15625 -8.175781 14.199219 -7.8125 L 14.199219 11.15625 C 14.199219 11.21875 14.199219 11.261719 14.21875 11.304688 C 14.285156 11.523438 14.457031 11.695312 14.738281 11.78125 C 14.867188 11.867188 15.039062 11.890625 15.210938 11.890625 C 15.339844 11.890625 15.46875 11.867188 15.621094 11.824219 C 15.902344 11.757812 16.097656 11.628906 16.226562 11.457031 C 16.332031 11.285156 16.398438 11.113281 16.398438 10.941406 L 16.398438 -14.996094 L 16.355469 -15.125 C 16.3125 -15.210938 16.289062 -15.296875 16.246094 -15.382812 C 16.203125 -15.46875 16.140625 -15.535156 16.097656 -15.621094 C 16.03125 -15.664062 15.96875 -15.730469 15.878906 -15.792969 C 15.792969 -15.835938 15.730469 -15.859375 15.644531 -15.902344 C 15.558594 -15.921875 15.449219 -15.945312 15.363281 -15.945312 C 15.277344 -15.945312 15.191406 -15.945312 15.105469 -15.945312 C 14.671875 -15.945312 14.347656 -15.96875 14.15625 -15.96875 L 14.003906 -15.96875 L 13.875 -15.921875 C 13.789062 -15.878906 13.703125 -15.859375 13.613281 -15.816406 C 13.527344 -15.773438 13.464844 -15.730469 13.398438 -15.664062 C 13.3125 -15.601562 13.269531 -15.535156 13.226562 -15.449219 C 13.183594 -15.363281 13.140625 -15.296875 13.097656 -15.210938 C 11.714844 -10.550781 10.703125 -7.078125 10.035156 -4.769531 C 9.859375 -4.335938 9.601562 -4.144531 9.277344 -4.207031 C 8.933594 -4.273438 8.71875 -4.464844 8.628906 -4.789062 C 7.269531 -9.40625 6.257812 -12.859375 5.589844 -15.167969 C 5.566406 -15.210938 5.546875 -15.253906 5.546875 -15.320312 C 5.523438 -15.363281 5.503906 -15.382812 5.480469 -15.425781 C 5.414062 -15.492188 5.351562 -15.558594 5.285156 -15.644531 C 5.222656 -15.707031 5.15625 -15.773438 5.09375 -15.816406 C 5.003906 -15.859375 4.917969 -15.878906 4.832031 -15.921875 C 4.746094 -15.921875 4.640625 -15.945312 4.550781 -15.96875 Z M 3.300781 -15.96875 "/></g></g></g><g fill="#ffbd59" fill-opacity="1"><g transform="translate(117.655587, 36.331493)"><g><path d="M 6.6875 -16.011719 L 6.582031 -16.011719 C 6.34375 -15.96875 6.148438 -15.878906 5.976562 -15.730469 C 5.78125 -15.578125 5.675781 -15.40625 5.632812 -15.191406 C 4.550781 -11.304688 3.734375 -8.414062 3.214844 -6.496094 L 2.933594 -5.480469 C 2.761719 -4.789062 2.566406 -4.097656 2.351562 -3.367188 C 2.179688 -2.742188 2.050781 -2.199219 1.921875 -1.746094 L 1.726562 -1.035156 C 1.726562 -0.839844 1.769531 -0.667969 1.855469 -0.539062 C 1.941406 -0.410156 2.027344 -0.300781 2.15625 -0.238281 C 2.4375 -0.0429688 2.785156 0.0234375 3.171875 -0.0664062 C 3.539062 -0.109375 3.777344 -0.238281 3.863281 -0.453125 C 4.121094 -1.359375 4.292969 -2.027344 4.421875 -2.503906 C 4.488281 -2.632812 4.597656 -2.847656 4.769531 -3.148438 C 4.917969 -3.410156 5.222656 -3.558594 5.675781 -3.558594 C 6.148438 -3.558594 6.625 -3.539062 7.097656 -3.539062 L 8.523438 -3.539062 L 9.082031 -3.472656 C 9.449219 -3.429688 9.710938 -3.128906 9.882812 -2.566406 C 9.902344 -2.4375 9.925781 -2.351562 9.96875 -2.308594 C 11.609375 3.734375 12.839844 8.265625 13.679688 11.285156 C 13.851562 11.628906 14.132812 11.78125 14.5 11.78125 C 14.652344 11.78125 14.824219 11.757812 14.996094 11.695312 C 15.535156 11.523438 15.816406 11.242188 15.816406 10.851562 C 15.816406 10.808594 15.792969 10.746094 15.792969 10.703125 C 14.132812 4.660156 12.902344 0.128906 12.082031 -2.890625 C 10.59375 -8.351562 9.492188 -12.449219 8.761719 -15.191406 C 8.695312 -15.40625 8.566406 -15.601562 8.371094 -15.773438 C 8.15625 -15.921875 7.941406 -16.011719 7.703125 -16.011719 Z M 6.214844 -5.78125 C 5.867188 -5.78125 5.652344 -5.910156 5.609375 -6.214844 C 5.566406 -6.34375 5.566406 -6.453125 5.566406 -6.582031 C 5.566406 -6.6875 5.566406 -6.796875 5.609375 -6.90625 L 6.515625 -10.140625 C 6.644531 -10.488281 6.839844 -10.636719 7.078125 -10.636719 C 7.164062 -10.636719 7.25 -10.617188 7.335938 -10.59375 C 7.660156 -10.421875 7.832031 -10.269531 7.875 -10.097656 C 8.265625 -8.609375 8.566406 -7.488281 8.761719 -6.753906 C 8.804688 -6.601562 8.824219 -6.472656 8.824219 -6.363281 C 8.824219 -6.105469 8.738281 -5.957031 8.566406 -5.910156 C 8.285156 -5.824219 8.089844 -5.78125 7.984375 -5.78125 Z M 6.214844 -5.78125 "/></g></g></g><g fill="#ffbd59" fill-opacity="1"><g transform="translate(134.170659, 36.331493)"><g><path d="M 4.421875 -14.953125 C 4.421875 -15.535156 4.054688 -15.859375 3.367188 -15.902344 L 3.28125 -15.902344 C 2.632812 -15.902344 2.289062 -15.578125 2.242188 -14.972656 C 2.222656 -8.804688 2.222656 -4.1875 2.222656 -1.121094 C 2.222656 -0.496094 2.566406 -0.171875 3.257812 -0.171875 L 3.324219 -0.171875 C 3.96875 -0.171875 4.335938 -0.519531 4.421875 -1.230469 Z M 4.421875 -14.953125 "/></g></g></g><g fill="#ffbd59" fill-opacity="1"><g transform="translate(142.316738, 36.331493)"><g><path d="M 13.808594 -14.652344 C 13.441406 -15.039062 12.96875 -15.339844 12.40625 -15.578125 C 11.824219 -15.792969 11.15625 -15.921875 10.421875 -15.921875 C 9.601562 -15.921875 8.890625 -15.792969 8.265625 -15.535156 C 7.617188 -15.277344 7.097656 -14.929688 6.6875 -14.5 C 6.277344 -14.046875 6 -13.550781 5.847656 -13.011719 C 5.675781 -12.449219 5.609375 -11.933594 5.695312 -11.414062 C 5.78125 -10.851562 6 -10.378906 6.34375 -10.011719 C 6.667969 -9.625 7.035156 -9.277344 7.464844 -8.976562 C 7.855469 -8.675781 8.285156 -8.394531 8.738281 -8.132812 C 9.191406 -7.855469 9.644531 -7.59375 10.121094 -7.335938 C 10.550781 -7.078125 10.984375 -6.839844 11.394531 -6.582031 C 11.800781 -6.320312 12.148438 -6.085938 12.429688 -5.867188 C 12.6875 -5.632812 12.882812 -5.4375 12.988281 -5.285156 C 13.074219 -5.113281 13.117188 -5.003906 13.117188 -4.917969 L 13.117188 -4.855469 C 13.140625 -4.121094 12.902344 -3.515625 12.429688 -3 C 11.910156 -2.480469 11.328125 -2.242188 10.660156 -2.242188 C 10.269531 -2.242188 9.902344 -2.289062 9.515625 -2.375 C 9.105469 -2.460938 8.71875 -2.695312 8.371094 -3.105469 C 8.308594 -3.148438 8.15625 -3.324219 7.917969 -3.582031 C 7.660156 -3.839844 7.335938 -4.164062 6.925781 -4.597656 C 6.515625 -5.027344 6.0625 -5.503906 5.546875 -6.0625 C 5.027344 -6.582031 4.488281 -7.140625 3.949219 -7.722656 C 3.839844 -7.8125 3.734375 -7.855469 3.601562 -7.898438 C 3.472656 -7.941406 3.367188 -7.941406 3.257812 -7.917969 C 2.890625 -7.832031 2.609375 -7.59375 2.394531 -7.183594 C 2.265625 -6.96875 2.199219 -6.796875 2.199219 -6.644531 C 2.199219 -6.472656 2.242188 -6.320312 2.375 -6.191406 C 2.914062 -5.609375 3.429688 -5.050781 3.949219 -4.53125 C 4.464844 -3.96875 4.917969 -3.496094 5.351562 -3.0625 C 5.738281 -2.632812 6.085938 -2.289062 6.363281 -2.007812 C 6.625 -1.703125 6.773438 -1.574219 6.773438 -1.597656 C 7.402344 -0.90625 8.089844 -0.476562 8.824219 -0.300781 C 9.535156 -0.109375 10.140625 -0.0234375 10.660156 -0.0234375 C 11.5 -0.0234375 12.277344 -0.238281 12.988281 -0.667969 C 13.679688 -1.101562 14.242188 -1.660156 14.671875 -2.351562 C 14.886719 -2.71875 15.039062 -3.128906 15.167969 -3.558594 C 15.296875 -3.992188 15.339844 -4.421875 15.339844 -4.898438 L 15.339844 -4.941406 C 15.320312 -5.503906 15.167969 -6 14.867188 -6.429688 C 14.5625 -6.863281 14.21875 -7.226562 13.832031 -7.574219 C 13.441406 -7.875 13.011719 -8.175781 12.558594 -8.457031 C 12.105469 -8.71875 11.652344 -8.996094 11.199219 -9.257812 C 10.722656 -9.515625 10.292969 -9.753906 9.882812 -10.011719 C 9.449219 -10.269531 9.0625 -10.507812 8.761719 -10.746094 C 8.457031 -10.960938 8.242188 -11.175781 8.113281 -11.347656 C 7.960938 -11.523438 7.898438 -11.652344 7.898438 -11.714844 C 7.855469 -11.910156 7.875 -12.125 7.941406 -12.363281 C 8.003906 -12.578125 8.132812 -12.796875 8.308594 -12.988281 C 8.480469 -13.160156 8.738281 -13.335938 9.0625 -13.507812 C 9.386719 -13.636719 9.839844 -13.722656 10.421875 -13.722656 C 10.960938 -13.722656 11.347656 -13.65625 11.585938 -13.570312 C 11.824219 -13.464844 12.019531 -13.335938 12.167969 -13.160156 L 12.363281 -12.96875 L 12.621094 -12.707031 C 12.75 -12.578125 12.902344 -12.40625 13.074219 -12.234375 C 13.25 -12.0625 13.421875 -11.867188 13.636719 -11.652344 C 13.9375 -11.328125 14.371094 -10.851562 14.972656 -10.226562 C 15.535156 -9.601562 16.03125 -9.082031 16.441406 -8.675781 C 16.65625 -8.414062 16.960938 -8.394531 17.390625 -8.585938 C 17.800781 -8.761719 18.058594 -9.039062 18.1875 -9.40625 C 18.210938 -9.492188 18.234375 -9.582031 18.234375 -9.667969 L 18.234375 -9.753906 C 18.210938 -9.882812 18.167969 -9.988281 18.101562 -10.121094 C 17.671875 -10.550781 17.175781 -11.089844 16.59375 -11.738281 C 15.988281 -12.386719 15.515625 -12.859375 15.210938 -13.203125 L 14.652344 -13.765625 L 14.199219 -14.21875 C 14.066406 -14.347656 13.960938 -14.457031 13.875 -14.5625 C 13.765625 -14.652344 13.746094 -14.695312 13.808594 -14.652344 Z M 13.808594 -14.652344 "/></g></g></g><g fill="#ffbd59" fill-opacity="1"><g transform="translate(164.590887, 36.331493)"><g><path d="M 10.054688 -14.867188 C 9.667969 -15.167969 9.214844 -15.40625 8.675781 -15.601562 C 8.113281 -15.773438 7.507812 -15.878906 6.839844 -15.878906 C 6.234375 -15.878906 5.675781 -15.816406 5.15625 -15.6875 C 4.640625 -15.535156 4.164062 -15.339844 3.777344 -15.082031 C 3.34375 -14.800781 3.019531 -14.457031 2.761719 -14.023438 C 2.480469 -13.59375 2.351562 -13.140625 2.351562 -12.644531 L 2.351562 -3.515625 C 2.351562 -2.890625 2.503906 -2.332031 2.828125 -1.855469 C 3.128906 -1.359375 3.515625 -0.992188 3.96875 -0.734375 C 4.402344 -0.453125 4.875 -0.257812 5.394531 -0.152344 C 5.910156 -0.0429688 6.410156 0 6.90625 0 C 7.507812 0 8.089844 -0.0664062 8.628906 -0.238281 C 9.148438 -0.386719 9.601562 -0.625 10.011719 -0.929688 C 10.421875 -1.230469 10.746094 -1.617188 10.984375 -2.070312 C 11.21875 -2.523438 11.347656 -3 11.347656 -3.515625 L 11.347656 -12.644531 C 11.347656 -13.097656 11.21875 -13.507812 10.984375 -13.875 C 10.746094 -14.21875 10.441406 -14.5625 10.054688 -14.867188 Z M 4.984375 -13.226562 C 5.15625 -13.335938 5.394531 -13.441406 5.71875 -13.550781 C 6.019531 -13.636719 6.410156 -13.679688 6.839844 -13.679688 C 7.269531 -13.679688 7.660156 -13.613281 7.984375 -13.507812 C 8.285156 -13.398438 8.523438 -13.269531 8.71875 -13.140625 C 8.890625 -12.988281 9.019531 -12.839844 9.0625 -12.707031 C 9.105469 -12.578125 9.148438 -12.558594 9.148438 -12.644531 L 9.148438 -3.515625 C 9.148438 -3.34375 9.105469 -3.195312 9.039062 -3.0625 C 8.953125 -2.933594 8.847656 -2.804688 8.675781 -2.675781 C 8.5 -2.546875 8.285156 -2.4375 7.984375 -2.351562 C 7.679688 -2.242188 7.335938 -2.199219 6.90625 -2.199219 C 6.558594 -2.199219 6.214844 -2.222656 5.910156 -2.308594 C 5.589844 -2.375 5.328125 -2.480469 5.113281 -2.609375 C 4.898438 -2.742188 4.769531 -2.847656 4.683594 -2.976562 C 4.597656 -3.085938 4.550781 -3.257812 4.550781 -3.515625 L 4.550781 -12.644531 C 4.550781 -12.730469 4.574219 -12.816406 4.640625 -12.902344 C 4.683594 -12.988281 4.789062 -13.097656 4.984375 -13.226562 Z M 4.984375 -13.226562 "/></g></g></g><g fill="#ffbd59" fill-opacity="1"><g transform="translate(179.790216, 36.331493)"><g><path d="M 12.535156 -26.085938 C 12.535156 -26.300781 12.429688 -26.519531 12.253906 -26.734375 C 12.082031 -26.90625 11.824219 -27.015625 11.523438 -27.015625 L 11.480469 -27.015625 C 11.132812 -27.015625 10.875 -26.90625 10.703125 -26.734375 C 10.488281 -26.539062 10.378906 -26.300781 10.335938 -26.023438 C 10.292969 -17.390625 10.269531 -10.941406 10.269531 -6.625 C 10.25 -6.085938 10.054688 -5.847656 9.710938 -5.890625 C 9.34375 -5.933594 9.082031 -6.105469 8.953125 -6.453125 C 7.421875 -10.335938 6.277344 -13.269531 5.523438 -15.234375 C 5.503906 -15.277344 5.480469 -15.320312 5.457031 -15.363281 C 5.4375 -15.40625 5.414062 -15.425781 5.394531 -15.46875 L 5.199219 -15.664062 C 5.113281 -15.730469 5.050781 -15.792969 4.960938 -15.835938 C 4.875 -15.859375 4.789062 -15.878906 4.703125 -15.902344 C 4.617188 -15.921875 4.53125 -15.945312 4.445312 -15.945312 L 3.324219 -15.945312 C 3.28125 -15.945312 3.238281 -15.921875 3.195312 -15.921875 C 3.148438 -15.921875 3.105469 -15.902344 3.0625 -15.902344 C 2.976562 -15.859375 2.890625 -15.835938 2.804688 -15.792969 C 2.71875 -15.75 2.632812 -15.6875 2.589844 -15.644531 C 2.503906 -15.578125 2.4375 -15.515625 2.394531 -15.425781 C 2.351562 -15.339844 2.308594 -15.277344 2.289062 -15.191406 C 2.242188 -15.105469 2.242188 -14.996094 2.242188 -14.910156 C 2.222656 -14.824219 2.222656 -14.714844 2.242188 -14.628906 C 2.242188 -3.214844 2.222656 5.351562 2.222656 11.046875 C 2.222656 11.285156 2.308594 11.480469 2.480469 11.609375 C 2.652344 11.757812 2.871094 11.867188 3.171875 11.910156 C 3.257812 11.933594 3.324219 11.933594 3.410156 11.933594 C 3.625 11.933594 3.820312 11.890625 3.992188 11.757812 C 4.207031 11.609375 4.359375 11.347656 4.421875 10.960938 L 4.421875 -8.566406 C 4.378906 -8.890625 4.53125 -9.148438 4.855469 -9.320312 C 5.15625 -9.492188 5.414062 -9.34375 5.632812 -8.910156 C 7.054688 -5.285156 8.113281 -2.566406 8.824219 -0.753906 L 8.867188 -0.625 C 8.890625 -0.582031 8.910156 -0.539062 8.953125 -0.519531 C 8.996094 -0.429688 9.0625 -0.367188 9.148438 -0.300781 C 9.214844 -0.238281 9.277344 -0.195312 9.363281 -0.152344 L 9.625 -0.0664062 C 9.710938 -0.0429688 9.816406 -0.0429688 9.902344 -0.0429688 L 11.5 -0.0429688 L 11.628906 -0.0859375 C 11.714844 -0.109375 11.800781 -0.152344 11.890625 -0.195312 C 11.976562 -0.238281 12.039062 -0.28125 12.105469 -0.34375 C 12.167969 -0.386719 12.234375 -0.476562 12.277344 -0.5625 C 12.320312 -0.625 12.363281 -0.710938 12.40625 -0.796875 C 12.429688 -0.882812 12.449219 -0.972656 12.449219 -1.078125 L 12.449219 -1.335938 C 12.492188 -13.703125 12.515625 -21.945312 12.535156 -26.085938 Z M 12.535156 -26.085938 "/></g></g></g></svg>