<svg xmlns="http://www.w3.org/2000/svg" xmlns:xlink="http://www.w3.org/1999/xlink" width="596" zoomAndPan="magnify" viewBox="0 0 446.88 122.249994" height="163" preserveAspectRatio="xMidYMid meet" version="1.0"><defs><g/></defs><g fill="#ff914d" fill-opacity="1"><g transform="translate(35.409001, 72.008305)"><g><path d="M 13.539062 -32.445312 L 13.320312 -32.445312 C 12.839844 -32.402344 12.445312 -32.226562 12.097656 -31.921875 C 11.703125 -31.617188 11.484375 -31.269531 11.398438 -30.832031 C 9.214844 -22.96875 7.554688 -17.117188 6.507812 -13.230469 L 5.984375 -11.355469 C 5.632812 -10.085938 5.242188 -8.777344 4.890625 -7.425781 C 4.585938 -6.289062 4.324219 -5.285156 4.0625 -4.410156 L 3.710938 -3.101562 C 3.625 -2.925781 3.625 -2.75 3.625 -2.578125 C 3.625 -2.183594 3.710938 -1.789062 3.972656 -1.441406 C 4.28125 -0.875 4.714844 -0.523438 5.285156 -0.347656 C 5.808594 -0.175781 6.375 -0.261719 6.988281 -0.613281 C 7.511719 -0.917969 7.859375 -1.355469 8.035156 -1.921875 C 8.648438 -4.28125 9.171875 -6.070312 9.519531 -7.292969 C 13.929688 -7.25 17.25 -7.207031 19.476562 -7.207031 C 19.738281 -6.113281 20 -5.285156 20.175781 -4.761719 C 23.496094 7.46875 25.984375 16.636719 27.6875 22.753906 C 27.773438 23.363281 28.125 23.84375 28.734375 24.191406 C 29.085938 24.457031 29.476562 24.542969 29.914062 24.542969 C 30.089844 24.542969 30.261719 24.542969 30.4375 24.457031 C 31.050781 24.324219 31.484375 23.929688 31.792969 23.320312 C 31.964844 22.96875 32.097656 22.621094 32.097656 22.226562 C 32.097656 22.054688 32.054688 21.835938 31.964844 21.574219 C 28.605469 9.34375 26.113281 0.175781 24.457031 -5.9375 C 21.441406 -16.988281 19.214844 -25.285156 17.730469 -30.832031 C 17.597656 -31.269531 17.335938 -31.660156 16.945312 -31.964844 C 16.507812 -32.273438 16.070312 -32.445312 15.589844 -32.445312 Z M 10.742188 -11.703125 C 12.402344 -17.859375 13.667969 -22.488281 14.542969 -25.546875 C 16.203125 -19.390625 17.425781 -14.761719 18.296875 -11.703125 Z M 10.742188 -11.703125 "/></g></g></g><g fill="#ff914d" fill-opacity="1"><g transform="translate(65.80052, 72.008305)"><g><path d="M -0.394531 -32.226562 L -0.566406 -32.226562 C -0.65625 -32.226562 -0.65625 -32.226562 -0.613281 -32.226562 L -0.566406 -32.226562 C -0.566406 -32.226562 -0.613281 -32.226562 -0.742188 -32.226562 C -0.960938 -32.183594 -1.089844 -32.140625 -1.136719 -32.140625 L -1.660156 -31.878906 C -1.835938 -31.792969 -2.007812 -31.660156 -2.097656 -31.574219 L -2.445312 -31.136719 C -2.53125 -30.960938 -2.621094 -30.789062 -2.664062 -30.613281 C -2.707031 -30.4375 -2.707031 -30.21875 -2.707031 -30.046875 L -2.707031 -30 C -2.707031 -29.828125 -2.707031 -29.652344 -2.664062 -29.519531 C -2.664062 -29.300781 -2.578125 -29.128906 -2.488281 -28.996094 C -2.402344 -28.820312 -2.316406 -28.648438 -2.140625 -28.515625 C -2.050781 -28.34375 -1.921875 -28.253906 -1.746094 -28.167969 C -1.570312 -28.035156 -1.398438 -27.949219 -1.222656 -27.90625 C -1.089844 -27.816406 -0.917969 -27.773438 -0.699219 -27.773438 C -0.523438 -27.773438 -0.347656 -27.773438 -0.132812 -27.816406 C 1.964844 -27.773438 3.539062 -27.773438 4.585938 -27.773438 L 4.585938 22.402344 C 4.585938 22.488281 4.585938 22.578125 4.628906 22.664062 C 4.628906 22.753906 4.628906 22.839844 4.671875 22.925781 C 4.714844 23.101562 4.804688 23.277344 4.890625 23.449219 C 4.933594 23.625 5.023438 23.800781 5.195312 23.929688 C 5.285156 24.0625 5.414062 24.191406 5.589844 24.28125 C 5.765625 24.410156 5.9375 24.5 6.113281 24.542969 C 6.289062 24.628906 6.464844 24.628906 6.636719 24.628906 L 7.207031 24.628906 C 7.378906 24.628906 7.554688 24.542969 7.730469 24.457031 C 7.902344 24.367188 8.035156 24.28125 8.210938 24.191406 C 8.339844 24.105469 8.472656 23.976562 8.601562 23.800781 C 8.691406 23.625 8.777344 23.496094 8.863281 23.320312 C 8.953125 23.144531 8.996094 22.96875 9.039062 22.753906 C 9.039062 22.578125 9.039062 22.402344 9.039062 22.226562 C 9.039062 7.117188 9.039062 -4.234375 9.082031 -11.835938 L 16.113281 -11.835938 C 17.207031 -11.835938 18.210938 -12.054688 19.171875 -12.535156 C 20.042969 -12.96875 20.832031 -13.582031 21.484375 -14.324219 C 22.097656 -15.023438 22.535156 -15.808594 22.882812 -16.683594 C 23.234375 -17.511719 23.40625 -18.386719 23.449219 -19.300781 C 23.449219 -19.347656 23.496094 -19.390625 23.496094 -19.433594 C 23.496094 -19.433594 23.449219 -19.476562 23.449219 -19.519531 C 23.449219 -19.519531 23.40625 -19.652344 23.40625 -19.871094 C 23.40625 -21.964844 23.449219 -23.582031 23.449219 -24.671875 C 23.449219 -24.761719 23.449219 -24.804688 23.449219 -24.890625 C 23.449219 -24.9375 23.40625 -25.066406 23.40625 -25.242188 C 23.320312 -26.464844 22.707031 -27.773438 21.617188 -29.257812 C 20.480469 -30.65625 18.820312 -31.660156 16.550781 -32.183594 C 16.464844 -32.183594 16.375 -32.226562 16.375 -32.226562 Z M 9.082031 -16.289062 L 9.082031 -27.773438 L 15.765625 -27.773438 C 17.074219 -27.425781 17.949219 -26.988281 18.339844 -26.375 C 18.691406 -25.765625 18.910156 -25.199219 18.996094 -24.585938 L 18.996094 -19.519531 C 18.996094 -19.128906 18.910156 -18.734375 18.734375 -18.339844 C 18.558594 -17.90625 18.339844 -17.511719 18.078125 -17.25 C 17.816406 -16.898438 17.511719 -16.683594 17.207031 -16.550781 C 16.855469 -16.375 16.507812 -16.289062 16.113281 -16.289062 Z M 9.082031 -16.289062 "/></g></g></g><g fill="#ff914d" fill-opacity="1"><g transform="translate(93.528414, 72.008305)"><g><path d="M 6.8125 -32.226562 L 6.59375 -32.226562 C 6.027344 -32.140625 5.546875 -31.921875 5.195312 -31.484375 C 4.761719 -31.050781 4.585938 -30.523438 4.585938 -30 L 4.585938 -2.269531 C 4.585938 -1.660156 4.804688 -1.179688 5.285156 -0.742188 C 5.722656 -0.261719 6.199219 -0.0429688 6.8125 -0.0429688 L 19.914062 -0.0429688 C 20.480469 -0.0429688 21.003906 -0.304688 21.441406 -0.742188 C 21.878906 -1.179688 22.140625 -1.660156 22.140625 -2.269531 C 22.140625 -2.882812 21.878906 -3.40625 21.441406 -3.84375 C 20.960938 -4.28125 20.4375 -4.542969 19.871094 -4.542969 L 9.039062 -4.542969 L 9.039062 -14.105469 L 17.074219 -14.105469 C 17.644531 -14.105469 18.167969 -14.324219 18.648438 -14.761719 C 19.082031 -15.195312 19.300781 -15.722656 19.300781 -16.332031 C 19.300781 -16.898438 19.082031 -17.425781 18.648438 -17.90625 C 18.167969 -18.339844 17.644531 -18.558594 17.074219 -18.558594 L 9.039062 -18.558594 L 9.039062 -27.773438 L 32.011719 -27.773438 C 32.578125 -27.730469 33.101562 -27.949219 33.582031 -28.429688 C 34.019531 -28.867188 34.28125 -29.390625 34.28125 -30 C 34.28125 -30.570312 34.019531 -31.09375 33.582031 -31.574219 C 33.101562 -32.011719 32.578125 -32.226562 32.011719 -32.226562 Z M 6.8125 -32.226562 "/></g></g></g><g fill="#ff914d" fill-opacity="1"><g transform="translate(119.466004, 72.008305)"><g><path d="M 23.449219 -53.015625 C 23.449219 -53.582031 23.234375 -54.105469 22.796875 -54.585938 C 22.316406 -55.023438 21.792969 -55.242188 21.222656 -55.242188 L 21.179688 -55.242188 C 20.570312 -55.242188 20.089844 -54.980469 19.652344 -54.542969 C 19.214844 -54.105469 18.996094 -53.582031 18.996094 -53.015625 L 18.996094 -18.253906 L 9.039062 -18.253906 L 9.039062 -29.957031 C 9.039062 -30.570312 8.820312 -31.136719 8.296875 -31.617188 C 7.773438 -32.054688 7.160156 -32.273438 6.550781 -32.226562 C 5.984375 -32.140625 5.503906 -31.878906 5.152344 -31.441406 C 4.761719 -31.003906 4.585938 -30.523438 4.585938 -30 L 4.585938 22.445312 C 4.585938 23.058594 4.804688 23.582031 5.285156 24.019531 C 5.722656 24.5 6.199219 24.71875 6.8125 24.71875 C 7.425781 24.71875 7.949219 24.5 8.382812 24.019531 C 8.820312 23.582031 9.039062 23.058594 9.039062 22.445312 L 9.039062 -13.800781 L 18.996094 -13.800781 L 18.996094 -2.269531 C 18.996094 -1.660156 19.214844 -1.136719 19.652344 -0.699219 C 20.089844 -0.21875 20.613281 0 21.222656 0 C 21.792969 0 22.316406 -0.21875 22.796875 -0.699219 C 23.234375 -1.136719 23.449219 -1.617188 23.449219 -2.226562 Z M 23.449219 -53.015625 "/></g></g></g><g fill="#ff914d" fill-opacity="1"><g transform="translate(147.193898, 72.008305)"><g><path d="M -2.707031 -32.226562 L -2.882812 -32.226562 C -2.96875 -32.226562 -3.011719 -32.226562 -2.96875 -32.226562 L -2.925781 -32.226562 C -2.925781 -32.226562 -2.96875 -32.226562 -3.101562 -32.226562 C -3.273438 -32.183594 -3.40625 -32.140625 -3.492188 -32.140625 L -4.019531 -31.878906 C -4.191406 -31.792969 -4.324219 -31.660156 -4.453125 -31.53125 C -4.585938 -31.398438 -4.671875 -31.269531 -4.761719 -31.09375 C -4.890625 -30.917969 -4.976562 -30.789062 -4.976562 -30.613281 C -5.066406 -30.394531 -5.066406 -30.21875 -5.066406 -30.046875 L -5.066406 -30 C -5.066406 -29.828125 -5.066406 -29.652344 -5.023438 -29.476562 C -4.976562 -29.300781 -4.890625 -29.128906 -4.804688 -28.953125 C -4.714844 -28.777344 -4.628906 -28.605469 -4.496094 -28.515625 C -4.410156 -28.34375 -4.28125 -28.210938 -4.105469 -28.125 C -3.929688 -28.035156 -3.753906 -27.949219 -3.582031 -27.90625 C -3.40625 -27.816406 -3.230469 -27.773438 -3.058594 -27.773438 L 4.671875 -27.773438 L 4.671875 -2.007812 C 4.671875 -1.921875 4.671875 -1.835938 4.714844 -1.746094 C 4.804688 -1.570312 4.847656 -1.398438 4.933594 -1.222656 C 5.023438 -1.046875 5.109375 -0.875 5.242188 -0.785156 C 5.371094 -0.613281 5.503906 -0.523438 5.675781 -0.4375 C 5.851562 -0.304688 6.027344 -0.21875 6.199219 -0.175781 C 6.375 -0.0859375 6.550781 -0.0859375 6.726562 -0.0859375 C 6.898438 -0.0429688 7.074219 -0.0429688 7.292969 -0.0859375 C 11.3125 -0.0859375 14.324219 -0.0429688 16.375 -0.0429688 C 17.074219 -0.0429688 17.859375 -0.132812 18.691406 -0.304688 C 19.476562 -0.4375 20.304688 -0.742188 21.09375 -1.265625 C 21.878906 -1.789062 22.535156 -2.488281 23.058594 -3.449219 C 23.582031 -4.324219 23.929688 -5.371094 24.0625 -6.59375 C 24.0625 -6.679688 24.105469 -6.769531 24.105469 -6.8125 L 24.105469 -24.980469 C 24.0625 -25.023438 24.019531 -25.152344 24.019531 -25.328125 C 23.886719 -25.941406 23.710938 -26.640625 23.449219 -27.382812 C 23.1875 -28.078125 22.839844 -28.734375 22.316406 -29.390625 C 21.792969 -30.046875 21.179688 -30.613281 20.4375 -31.09375 C 19.652344 -31.574219 18.820312 -31.921875 17.859375 -32.183594 L 17.644531 -32.183594 C 17.597656 -32.183594 17.46875 -32.226562 17.292969 -32.226562 Z M 9.128906 -4.542969 L 9.128906 -27.773438 L 16.988281 -27.773438 C 17.46875 -27.597656 17.859375 -27.46875 18.125 -27.335938 C 18.386719 -27.164062 18.648438 -26.945312 18.820312 -26.726562 C 18.996094 -26.464844 19.128906 -26.113281 19.300781 -25.765625 C 19.433594 -25.371094 19.5625 -24.9375 19.652344 -24.457031 L 19.652344 -7.160156 C 19.5625 -6.417969 19.433594 -5.894531 19.257812 -5.632812 C 19.082031 -5.371094 18.867188 -5.152344 18.648438 -4.976562 C 18.386719 -4.804688 18.078125 -4.714844 17.730469 -4.628906 C 17.292969 -4.542969 16.855469 -4.542969 16.375 -4.542969 Z M 9.128906 -4.542969 "/></g></g></g><g fill="#ff914d" fill-opacity="1"><g transform="translate(175.838778, 72.008305)"><g><path d="M 13.539062 -32.445312 L 13.320312 -32.445312 C 12.839844 -32.402344 12.445312 -32.226562 12.097656 -31.921875 C 11.703125 -31.617188 11.484375 -31.269531 11.398438 -30.832031 C 9.214844 -22.96875 7.554688 -17.117188 6.507812 -13.230469 L 5.984375 -11.355469 C 5.632812 -10.085938 5.242188 -8.777344 4.890625 -7.425781 C 4.585938 -6.289062 4.324219 -5.285156 4.0625 -4.410156 L 3.710938 -3.101562 C 3.625 -2.925781 3.625 -2.75 3.625 -2.578125 C 3.625 -2.183594 3.710938 -1.789062 3.972656 -1.441406 C 4.28125 -0.875 4.714844 -0.523438 5.285156 -0.347656 C 5.808594 -0.175781 6.375 -0.261719 6.988281 -0.613281 C 7.511719 -0.917969 7.859375 -1.355469 8.035156 -1.921875 C 8.648438 -4.28125 9.171875 -6.070312 9.519531 -7.292969 C 13.929688 -7.25 17.25 -7.207031 19.476562 -7.207031 C 19.738281 -6.113281 20 -5.285156 20.175781 -4.761719 C 23.496094 7.46875 25.984375 16.636719 27.6875 22.753906 C 27.773438 23.363281 28.125 23.84375 28.734375 24.191406 C 29.085938 24.457031 29.476562 24.542969 29.914062 24.542969 C 30.089844 24.542969 30.261719 24.542969 30.4375 24.457031 C 31.050781 24.324219 31.484375 23.929688 31.792969 23.320312 C 31.964844 22.96875 32.097656 22.621094 32.097656 22.226562 C 32.097656 22.054688 32.054688 21.835938 31.964844 21.574219 C 28.605469 9.34375 26.113281 0.175781 24.457031 -5.9375 C 21.441406 -16.988281 19.214844 -25.285156 17.730469 -30.832031 C 17.597656 -31.269531 17.335938 -31.660156 16.945312 -31.964844 C 16.507812 -32.273438 16.070312 -32.445312 15.589844 -32.445312 Z M 10.742188 -11.703125 C 12.402344 -17.859375 13.667969 -22.488281 14.542969 -25.546875 C 16.203125 -19.390625 17.425781 -14.761719 18.296875 -11.703125 Z M 10.742188 -11.703125 "/></g></g></g><g fill="#ff914d" fill-opacity="1"><g transform="translate(206.230296, 72.008305)"><g/></g></g><g fill="#ff914d" fill-opacity="1"><g transform="translate(230.552256, 72.008305)"><g><path d="M 16.683594 -32.273438 L 16.550781 -32.273438 C 16.464844 -32.273438 16.507812 -32.273438 16.683594 -32.273438 C 14.105469 -32.226562 11.921875 -31.355469 10.175781 -29.652344 C 8.429688 -27.90625 7.554688 -25.851562 7.554688 -23.449219 C 7.554688 -22.273438 7.902344 -21.222656 8.515625 -20.304688 C 9.128906 -19.390625 9.871094 -18.558594 10.742188 -17.773438 C 10.261719 -17.511719 9.78125 -17.207031 9.34375 -16.945312 C 8.863281 -16.636719 8.429688 -16.332031 8.035156 -15.984375 C 7.074219 -15.109375 6.246094 -14.0625 5.632812 -12.839844 C 4.976562 -11.574219 4.671875 -10.132812 4.671875 -8.558594 C 4.671875 -6.726562 5.152344 -5.195312 6.199219 -3.972656 C 7.25 -2.664062 8.429688 -1.746094 9.738281 -1.136719 C 11.046875 -0.480469 12.359375 -0.0859375 13.757812 0.0429688 C 14.191406 0.132812 14.671875 0.132812 15.109375 0.132812 C 15.984375 0.132812 16.8125 0.0429688 17.644531 -0.175781 C 19.476562 -0.613281 21.136719 -1.355469 22.621094 -2.359375 C 24.0625 -3.320312 25.328125 -4.410156 26.421875 -5.632812 C 26.945312 -4.976562 27.382812 -4.367188 27.730469 -3.84375 C 28.035156 -3.230469 28.210938 -2.75 28.210938 -2.316406 C 28.210938 -2.226562 28.210938 -2.140625 28.253906 -2.050781 C 28.253906 -1.921875 28.253906 -1.835938 28.296875 -1.746094 C 28.34375 -1.570312 28.429688 -1.441406 28.515625 -1.265625 C 28.605469 -1.089844 28.691406 -0.917969 28.820312 -0.785156 L 29.257812 -0.4375 C 29.433594 -0.347656 29.609375 -0.261719 29.78125 -0.21875 C 29.957031 -0.132812 30.132812 -0.0859375 30.308594 -0.0859375 C 30.480469 -0.0859375 30.699219 -0.0859375 30.875 -0.132812 C 31.050781 -0.132812 31.222656 -0.21875 31.398438 -0.304688 C 31.574219 -0.394531 31.703125 -0.480469 31.878906 -0.613281 C 32.011719 -0.699219 32.140625 -0.828125 32.273438 -1.003906 C 32.359375 -1.136719 32.445312 -1.308594 32.535156 -1.484375 C 32.578125 -1.660156 32.621094 -1.835938 32.664062 -2.007812 L 32.664062 -2.578125 C 32.664062 -3.84375 32.316406 -5.066406 31.617188 -6.199219 C 30.917969 -7.335938 30.046875 -8.382812 29.085938 -9.34375 C 29.433594 -10 29.78125 -10.65625 30.089844 -11.3125 C 30.394531 -11.921875 30.65625 -12.488281 30.875 -13.101562 C 30.875 -13.1875 30.917969 -13.277344 31.003906 -13.363281 C 31.003906 -13.449219 31.050781 -13.539062 31.050781 -13.625 C 31.050781 -13.800781 31.09375 -13.972656 31.09375 -14.191406 C 31.09375 -14.367188 31.050781 -14.542969 31.003906 -14.71875 C 30.917969 -14.890625 30.875 -15.066406 30.789062 -15.242188 C 30.699219 -15.371094 30.570312 -15.503906 30.4375 -15.675781 C 30.308594 -15.765625 30.175781 -15.894531 30 -16.027344 C 29.828125 -16.113281 29.695312 -16.15625 29.519531 -16.246094 C 29.300781 -16.289062 29.128906 -16.332031 28.953125 -16.332031 C 28.734375 -16.332031 28.558594 -16.289062 28.386719 -16.289062 C 28.210938 -16.203125 28.035156 -16.15625 27.863281 -16.070312 C 27.6875 -15.984375 27.511719 -15.851562 27.425781 -15.765625 C 27.25 -15.632812 27.117188 -15.503906 27.03125 -15.371094 L 26.769531 -14.847656 C 26.59375 -14.410156 26.421875 -13.972656 26.246094 -13.582031 C 26.027344 -13.144531 25.808594 -12.75 25.589844 -12.359375 C 24.890625 -12.882812 24.191406 -13.40625 23.496094 -13.929688 C 22.753906 -14.410156 22.054688 -14.890625 21.355469 -15.371094 C 21.003906 -15.589844 20.742188 -15.808594 20.480469 -15.984375 C 20.21875 -16.15625 19.957031 -16.375 19.652344 -16.59375 C 20.042969 -16.726562 20.4375 -16.898438 20.832031 -17.074219 C 21.179688 -17.25 21.574219 -17.425781 21.964844 -17.644531 C 22.882812 -18.167969 23.710938 -18.953125 24.5 -19.957031 C 25.242188 -20.917969 25.632812 -22.097656 25.679688 -23.40625 L 25.679688 -23.449219 C 25.679688 -24.542969 25.546875 -25.632812 25.199219 -26.683594 C 24.804688 -27.730469 24.238281 -28.691406 23.449219 -29.566406 C 22.664062 -30.394531 21.660156 -31.050781 20.523438 -31.53125 C 19.347656 -32.011719 18.078125 -32.273438 16.683594 -32.273438 Z M 12.054688 -23.496094 L 12.054688 -23.539062 C 12.054688 -24.761719 12.445312 -25.765625 13.230469 -26.550781 C 14.019531 -27.335938 15.152344 -27.773438 16.683594 -27.816406 L 16.726562 -27.816406 C 17.597656 -27.816406 18.296875 -27.6875 18.867188 -27.425781 C 19.390625 -27.164062 19.871094 -26.855469 20.21875 -26.507812 C 20.570312 -26.113281 20.832031 -25.679688 21.003906 -25.199219 C 21.179688 -24.671875 21.222656 -24.105469 21.222656 -23.539062 L 21.222656 -23.363281 C 21.222656 -23.277344 21.265625 -23.1875 21.3125 -23.015625 C 21.222656 -22.753906 21.09375 -22.535156 20.917969 -22.359375 C 20.65625 -22.097656 20.261719 -21.835938 19.652344 -21.484375 C 19.128906 -21.179688 18.515625 -20.875 17.730469 -20.613281 C 16.945312 -20.304688 16.113281 -20 15.285156 -19.695312 C 15.152344 -19.78125 15.023438 -19.871094 14.890625 -20 C 14.71875 -20.089844 14.585938 -20.175781 14.5 -20.261719 C 13.625 -21.003906 12.96875 -21.660156 12.621094 -22.273438 C 12.226562 -22.839844 12.054688 -23.234375 12.054688 -23.496094 Z M 10.917969 -12.578125 C 11.355469 -12.925781 11.921875 -13.320312 12.578125 -13.667969 C 13.230469 -14.019531 13.929688 -14.324219 14.71875 -14.628906 C 15.414062 -14.105469 16.070312 -13.625 16.769531 -13.144531 C 17.425781 -12.621094 18.125 -12.140625 18.867188 -11.660156 C 19.609375 -11.136719 20.304688 -10.65625 21.003906 -10.132812 C 21.617188 -9.605469 22.273438 -9.082031 22.96875 -8.601562 C 22.097656 -7.640625 21.136719 -6.8125 20.089844 -6.070312 C 18.996094 -5.328125 17.816406 -4.804688 16.550781 -4.496094 C 16.203125 -4.410156 15.808594 -4.367188 15.371094 -4.367188 C 15.023438 -4.367188 14.628906 -4.367188 14.28125 -4.410156 C 13.277344 -4.496094 12.402344 -4.714844 11.617188 -5.109375 C 10.832031 -5.457031 10.21875 -5.9375 9.78125 -6.464844 C 9.34375 -6.988281 9.128906 -7.6875 9.128906 -8.558594 C 9.128906 -9.5625 9.257812 -10.351562 9.605469 -10.960938 C 9.871094 -11.527344 10.304688 -12.054688 10.917969 -12.578125 Z M 10.917969 -12.578125 "/></g></g></g><g fill="#ff914d" fill-opacity="1"><g transform="translate(268.104994, 72.008305)"><g/></g></g><g fill="#ff914d" fill-opacity="1"><g transform="translate(292.426954, 72.008305)"><g><path d="M 36.902344 -48.605469 C 36.726562 -48.648438 36.550781 -48.691406 36.378906 -48.734375 C 36.203125 -48.734375 36.027344 -48.78125 35.941406 -48.78125 L 35.898438 -48.78125 C 35.808594 -48.734375 35.722656 -48.734375 35.636719 -48.734375 C 35.546875 -48.734375 35.460938 -48.691406 35.371094 -48.648438 C 35.199219 -48.5625 35.023438 -48.472656 34.847656 -48.386719 C 34.675781 -48.300781 34.542969 -48.167969 34.410156 -48.082031 C 32.226562 -44.5 30.046875 -40.917969 27.90625 -37.339844 C 25.722656 -33.757812 23.539062 -30.21875 21.265625 -26.640625 L 21.265625 -26.59375 C 18.910156 -22.882812 17.164062 -20.132812 16.027344 -18.296875 C 12.402344 -24.0625 9.695312 -28.386719 7.859375 -31.269531 C 7.816406 -31.3125 7.773438 -31.398438 7.730469 -31.484375 C 7.640625 -31.574219 7.597656 -31.617188 7.511719 -31.703125 C 7.335938 -31.792969 7.207031 -31.921875 7.074219 -32.011719 C 6.898438 -32.097656 6.726562 -32.183594 6.550781 -32.226562 C 6.375 -32.273438 6.199219 -32.316406 6.027344 -32.316406 C 5.808594 -32.316406 5.632812 -32.273438 5.457031 -32.273438 C 5.546875 -32.273438 5.632812 -32.273438 5.722656 -32.316406 C 5.808594 -32.316406 5.851562 -32.316406 5.808594 -32.316406 C 5.722656 -32.273438 5.632812 -32.273438 5.546875 -32.273438 C 5.414062 -32.273438 5.328125 -32.226562 5.242188 -32.226562 C 5.066406 -32.140625 4.933594 -32.054688 4.761719 -31.964844 L 4.324219 -31.617188 C 4.191406 -31.441406 4.105469 -31.3125 4.019531 -31.179688 C 3.929688 -31.003906 3.84375 -30.832031 3.800781 -30.65625 C 3.753906 -30.480469 3.753906 -30.261719 3.753906 -30.089844 C 3.753906 -29.914062 3.753906 -29.695312 3.800781 -29.519531 C 3.84375 -29.347656 3.929688 -29.171875 4.019531 -29.039062 C 4.105469 -28.867188 4.191406 -28.691406 4.324219 -28.558594 C 8.515625 -21.835938 11.703125 -16.8125 13.800781 -13.492188 L 13.800781 23.40625 C 13.800781 23.496094 13.800781 23.582031 13.886719 23.667969 L 14.0625 24.191406 C 14.148438 24.367188 14.238281 24.542969 14.367188 24.628906 C 14.5 24.804688 14.628906 24.9375 14.804688 25.023438 C 14.933594 25.109375 15.109375 25.199219 15.285156 25.242188 C 15.460938 25.328125 15.632812 25.371094 15.851562 25.371094 L 16.027344 25.371094 C 16.113281 25.371094 16.246094 25.371094 16.421875 25.328125 C 16.59375 25.328125 16.769531 25.285156 16.945312 25.199219 C 17.117188 25.109375 17.25 25.023438 17.425781 24.890625 C 17.554688 24.804688 17.6875 24.671875 17.816406 24.5 C 17.90625 24.367188 17.992188 24.191406 18.078125 24.019531 C 18.167969 23.84375 18.210938 23.667969 18.210938 23.496094 C 18.210938 23.320312 18.253906 23.144531 18.253906 22.925781 L 18.253906 -13.40625 C 18.253906 -13.492188 18.253906 -13.539062 18.296875 -13.625 C 18.296875 -13.625 18.339844 -13.757812 18.386719 -13.972656 C 18.339844 -13.886719 18.339844 -13.800781 18.339844 -13.710938 C 18.339844 -13.582031 18.339844 -13.539062 18.339844 -13.625 C 18.253906 -13.710938 18.253906 -13.757812 18.296875 -13.800781 C 18.296875 -13.84375 18.253906 -13.972656 18.253906 -14.148438 C 21.265625 -18.648438 23.539062 -22.007812 25.023438 -24.28125 C 25.023438 -24.28125 25.851562 -25.589844 27.46875 -28.210938 C 29.039062 -30.832031 32.535156 -36.507812 37.90625 -45.328125 C 37.949219 -45.417969 37.992188 -45.503906 38.035156 -45.589844 C 38.082031 -45.636719 38.125 -45.722656 38.167969 -45.855469 L 38.253906 -46.378906 L 38.253906 -46.597656 C 38.253906 -46.683594 38.210938 -46.8125 38.210938 -46.945312 C 38.167969 -47.121094 38.125 -47.292969 38.082031 -47.46875 C 37.992188 -47.644531 37.863281 -47.773438 37.773438 -47.949219 C 37.644531 -48.082031 37.511719 -48.210938 37.382812 -48.300781 C 37.207031 -48.386719 37.03125 -48.515625 36.902344 -48.605469 Z M 36.902344 -48.605469 "/></g></g></g><g fill="#ff914d" fill-opacity="1"><g transform="translate(326.442738, 72.008305)"><g><path d="M 26.875 0 L 22.84375 0 L 22.84375 -13.109375 C 21.113281 -12.503906 19.492188 -12.015625 17.984375 -11.640625 C 16.484375 -11.273438 14.8125 -11.09375 12.96875 -11.09375 C 9.988281 -11.09375 7.675781 -11.785156 6.03125 -13.171875 C 4.394531 -14.554688 3.578125 -16.5625 3.578125 -19.1875 L 3.578125 -31.921875 L 7.609375 -31.921875 L 7.609375 -19.765625 C 7.609375 -18.035156 8.0625 -16.742188 8.96875 -15.890625 C 9.875 -15.046875 11.34375 -14.625 13.375 -14.625 C 15.132812 -14.625 16.710938 -14.78125 18.109375 -15.09375 C 19.515625 -15.40625 21.09375 -15.859375 22.84375 -16.453125 L 22.84375 -31.921875 L 26.875 -31.921875 Z M 26.875 0 "/></g></g></g><g fill="#ff914d" fill-opacity="1"><g transform="translate(357.653115, 72.008305)"><g><path d="M 6.8125 -32.226562 L 6.59375 -32.226562 C 6.027344 -32.140625 5.546875 -31.921875 5.195312 -31.484375 C 4.761719 -31.050781 4.585938 -30.523438 4.585938 -30 L 4.585938 -2.269531 C 4.585938 -1.660156 4.804688 -1.179688 5.285156 -0.742188 C 5.722656 -0.261719 6.199219 -0.0429688 6.8125 -0.0429688 L 19.914062 -0.0429688 C 20.480469 -0.0429688 21.003906 -0.304688 21.441406 -0.742188 C 21.878906 -1.179688 22.140625 -1.660156 22.140625 -2.269531 C 22.140625 -2.882812 21.878906 -3.40625 21.441406 -3.84375 C 20.960938 -4.28125 20.4375 -4.542969 19.871094 -4.542969 L 9.039062 -4.542969 L 9.039062 -14.105469 L 17.074219 -14.105469 C 17.644531 -14.105469 18.167969 -14.324219 18.648438 -14.761719 C 19.082031 -15.195312 19.300781 -15.722656 19.300781 -16.332031 C 19.300781 -16.898438 19.082031 -17.425781 18.648438 -17.90625 C 18.167969 -18.339844 17.644531 -18.558594 17.074219 -18.558594 L 9.039062 -18.558594 L 9.039062 -27.773438 L 32.011719 -27.773438 C 32.578125 -27.730469 33.101562 -27.949219 33.582031 -28.429688 C 34.019531 -28.867188 34.28125 -29.390625 34.28125 -30 C 34.28125 -30.570312 34.019531 -31.09375 33.582031 -31.574219 C 33.101562 -32.011719 32.578125 -32.226562 32.011719 -32.226562 Z M 6.8125 -32.226562 "/></g></g></g><g fill="#ff914d" fill-opacity="1"><g transform="translate(383.590705, 72.008305)"><g><path d="M 22.273438 -32.183594 L 11.046875 -32.183594 C 9.519531 -32.183594 7.6875 -32.183594 5.589844 -32.226562 C 5.457031 -32.226562 5.371094 -32.183594 5.371094 -32.183594 L 5.023438 -32.183594 L 5.285156 -32.183594 L 5.371094 -32.226562 L 5.328125 -32.226562 C 5.242188 -32.183594 5.152344 -32.183594 5.066406 -32.183594 C 4.976562 -32.183594 4.890625 -32.140625 4.804688 -32.097656 C 4.628906 -32.011719 4.453125 -31.964844 4.28125 -31.878906 C 4.105469 -31.792969 3.972656 -31.660156 3.84375 -31.53125 C 3.710938 -31.398438 3.625 -31.269531 3.539062 -31.09375 C 3.40625 -30.917969 3.320312 -30.742188 3.320312 -30.570312 C 3.230469 -30.394531 3.230469 -30.21875 3.230469 -30.046875 L 3.230469 -29.957031 C 3.230469 -29.78125 3.230469 -29.609375 3.273438 -29.476562 C 3.320312 -29.300781 3.40625 -29.128906 3.492188 -28.953125 C 3.582031 -28.777344 3.667969 -28.605469 3.800781 -28.472656 C 3.886719 -28.34375 4.0625 -28.210938 4.234375 -28.125 C 4.367188 -27.992188 4.542969 -27.90625 4.714844 -27.863281 C 4.890625 -27.773438 5.066406 -27.773438 5.242188 -27.773438 C 5.414062 -27.730469 5.632812 -27.730469 5.808594 -27.773438 C 8.515625 -27.773438 10.566406 -27.730469 11.964844 -27.730469 L 11.964844 22.707031 C 11.964844 22.796875 11.964844 22.882812 12.007812 22.96875 C 12.054688 23.144531 12.140625 23.320312 12.226562 23.496094 C 12.316406 23.667969 12.402344 23.84375 12.535156 23.929688 C 12.621094 24.105469 12.796875 24.238281 12.96875 24.324219 C 13.101562 24.410156 13.277344 24.5 13.449219 24.542969 C 13.625 24.628906 13.800781 24.671875 13.972656 24.671875 L 14.191406 24.671875 C 14.28125 24.671875 14.410156 24.671875 14.542969 24.628906 C 14.71875 24.628906 14.890625 24.585938 15.066406 24.5 C 15.242188 24.410156 15.371094 24.324219 15.546875 24.191406 C 15.675781 24.105469 15.808594 23.976562 15.941406 23.800781 C 16.027344 23.667969 16.15625 23.496094 16.246094 23.320312 C 16.289062 23.144531 16.332031 22.96875 16.375 22.796875 C 16.375 22.621094 16.421875 22.445312 16.421875 22.226562 L 16.421875 -27.730469 L 22.445312 -27.730469 C 22.535156 -27.730469 22.664062 -27.730469 22.753906 -27.773438 C 22.839844 -27.773438 22.925781 -27.773438 23.015625 -27.816406 C 23.1875 -27.863281 23.363281 -27.949219 23.539062 -28.035156 C 23.710938 -28.078125 23.84375 -28.167969 23.976562 -28.34375 C 24.105469 -28.429688 24.238281 -28.558594 24.367188 -28.734375 C 24.457031 -28.910156 24.5 -29.085938 24.585938 -29.257812 C 24.628906 -29.433594 24.671875 -29.609375 24.71875 -29.78125 L 24.71875 -29.957031 C 24.71875 -30.089844 24.671875 -30.21875 24.671875 -30.351562 C 24.628906 -30.523438 24.585938 -30.699219 24.542969 -30.875 C 24.457031 -31.050781 24.324219 -31.179688 24.238281 -31.355469 C 24.105469 -31.484375 23.976562 -31.617188 23.84375 -31.75 C 23.667969 -31.835938 23.539062 -31.921875 23.363281 -32.011719 C 23.1875 -32.097656 23.015625 -32.140625 22.839844 -32.183594 Z M 22.273438 -32.183594 "/></g></g></g></svg>