<svg xmlns="http://www.w3.org/2000/svg" xmlns:xlink="http://www.w3.org/1999/xlink" width="364" zoomAndPan="magnify" viewBox="0 0 273 131.249995" height="175" preserveAspectRatio="xMidYMid meet" version="1.0"><defs><g/><clipPath id="13b3eecd1c"><path d="M 62 0.0820312 L 211 0.0820312 L 211 64 L 62 64 Z M 62 0.0820312 " clip-rule="nonzero"/></clipPath><clipPath id="4b6994df2c"><path d="M 126 56 L 135 56 L 135 64.960938 L 126 64.960938 Z M 126 56 " clip-rule="nonzero"/></clipPath><clipPath id="d125cd76e5"><path d="M 136 56 L 146 56 L 146 64.960938 L 136 64.960938 Z M 136 56 " clip-rule="nonzero"/></clipPath></defs><g clip-path="url(#13b3eecd1c)"><path fill="#ffffff" d="M 86.386719 63.769531 L 85.160156 62.539062 L 134.433594 13.265625 L 123.96875 2.800781 L 63.296875 63.472656 L 62.066406 62.242188 L 123.96875 0.34375 L 135.660156 12.039062 L 147.617188 0.0820312 L 210.933594 63.398438 L 184.5625 63.398438 L 135.660156 14.496094 Z M 185.269531 61.648438 L 206.6875 61.648438 L 147.617188 2.539062 L 136.890625 13.265625 Z M 185.269531 61.648438 " fill-opacity="1" fill-rule="nonzero"/></g><g clip-path="url(#4b6994df2c)"><path fill="#ffffff" d="M 134.730469 64.589844 L 126.425781 64.589844 L 126.425781 56.285156 L 134.730469 56.285156 Z M 128.175781 62.839844 L 132.980469 62.839844 L 132.980469 58.035156 L 128.175781 58.035156 Z M 128.175781 62.839844 " fill-opacity="1" fill-rule="nonzero"/></g><g clip-path="url(#d125cd76e5)"><path fill="#ffffff" d="M 145.085938 64.589844 L 136.742188 64.589844 L 136.742188 56.285156 L 145.085938 56.285156 Z M 138.492188 62.839844 L 143.335938 62.839844 L 143.335938 58.035156 L 138.492188 58.035156 Z M 138.492188 62.839844 " fill-opacity="1" fill-rule="nonzero"/></g><path fill="#ffffff" d="M 134.730469 54.199219 L 126.425781 54.199219 L 126.425781 45.855469 L 134.730469 45.855469 Z M 128.175781 52.449219 L 132.980469 52.449219 L 132.980469 47.605469 L 128.175781 47.605469 Z M 128.175781 52.449219 " fill-opacity="1" fill-rule="nonzero"/><path fill="#ffffff" d="M 145.085938 54.199219 L 136.742188 54.199219 L 136.742188 45.855469 L 145.085938 45.855469 Z M 138.492188 52.449219 L 143.335938 52.449219 L 143.335938 47.605469 L 138.492188 47.605469 Z M 138.492188 52.449219 " fill-opacity="1" fill-rule="nonzero"/><g fill="#ffffff" fill-opacity="1"><g transform="translate(81.98583, 97.485246)"><g><path d="M 18.480469 -18.886719 L 11.007812 -7.121094 L 3.5625 -18.886719 L 1.753906 -18.886719 L 1.753906 0 L 3.722656 0 L 3.722656 -15.136719 L 10.332031 -4.722656 L 11.65625 -4.722656 L 18.320312 -15.136719 L 18.320312 0 L 20.289062 0 L 20.289062 -18.886719 Z M 18.480469 -18.886719 "/></g></g></g><g fill="#ffffff" fill-opacity="1"><g transform="translate(105.858966, 97.485246)"><g><path d="M 14.703125 0 L 16.863281 0 L 9.714844 -18.886719 L 7.933594 -18.886719 L 0.808594 0 L 2.96875 0 L 5.019531 -5.476562 L 12.652344 -5.476562 Z M 5.746094 -7.417969 L 8.824219 -15.785156 L 11.925781 -7.417969 Z M 5.746094 -7.417969 "/></g></g></g><g fill="#ffffff" fill-opacity="1"><g transform="translate(125.362176, 97.485246)"><g><path d="M 1.753906 -18.886719 L 1.753906 0 L 3.695312 0 L 3.695312 -18.886719 Z M 1.753906 -18.886719 "/></g></g></g><g fill="#ffffff" fill-opacity="1"><g transform="translate(132.645815, 97.485246)"><g><path d="M 8.335938 -10.46875 C 4.777344 -11.089844 3.238281 -11.84375 3.238281 -13.734375 C 3.238281 -15.972656 5.074219 -17.132812 8.011719 -17.132812 C 10.089844 -17.132812 12.140625 -16.40625 12.628906 -14.378906 L 14.488281 -15.027344 C 13.789062 -17.320312 11.332031 -19.074219 8.011719 -19.074219 C 3.371094 -19.074219 1.269531 -16.511719 1.296875 -13.734375 C 1.320312 -10.253906 4.316406 -9.226562 8.011719 -8.554688 C 11.710938 -7.878906 13.300781 -7.3125 13.300781 -5.261719 C 13.300781 -2.617188 10.332031 -1.726562 8.335938 -1.726562 C 5.476562 -1.726562 3.425781 -2.777344 2.671875 -4.585938 L 0.808594 -3.9375 C 1.59375 -1.808594 4.128906 0.214844 8.390625 0.214844 C 11.84375 0.214844 15.269531 -1.617188 15.269531 -5.261719 C 15.269531 -8.984375 11.816406 -9.902344 8.335938 -10.46875 Z M 8.335938 -10.46875 "/></g></g></g><g fill="#ffffff" fill-opacity="1"><g transform="translate(150.557514, 97.485246)"><g><path d="M 10.386719 -19.046875 C 5.074219 -19.046875 1.214844 -14.730469 1.214844 -9.417969 C 1.214844 -4.101562 5.074219 0.214844 10.386719 0.214844 C 15.703125 0.214844 19.535156 -4.101562 19.535156 -9.417969 C 19.535156 -14.730469 15.703125 -19.046875 10.386719 -19.046875 Z M 10.386719 -1.699219 C 6.125 -1.699219 3.210938 -5.152344 3.210938 -9.417969 C 3.210938 -13.679688 6.125 -17.132812 10.386719 -17.132812 C 14.625 -17.132812 17.539062 -13.679688 17.539062 -9.417969 C 17.539062 -5.152344 14.625 -1.699219 10.386719 -1.699219 Z M 10.386719 -1.699219 "/></g></g></g><g fill="#ffffff" fill-opacity="1"><g transform="translate(173.13586, 97.485246)"><g><path d="M 14.164062 -18.886719 L 14.164062 -3.617188 L 3.535156 -18.886719 L 1.753906 -18.886719 L 1.753906 0 L 3.695312 0 L 3.695312 -15.324219 L 14.328125 0 L 16.109375 0 L 16.109375 -18.886719 Z M 14.164062 -18.886719 "/></g></g></g></svg>